<svg xmlns="http://www.w3.org/2000/svg" version="1.1" xmlns:xlink="http://www.w3.org/1999/xlink" xmlns:svgjs="http://svgjs.dev/svgjs" width="1000" height="1000"><g clip-path="url(#SvgjsClipPath1482)"><rect width="1000" height="1000" fill="#0983c5"></rect><g transform="matrix(29.166666666666668,0,0,29.166666666666668,150,150)"><svg xmlns="http://www.w3.org/2000/svg" version="1.1" xmlns:xlink="http://www.w3.org/1999/xlink" xmlns:svgjs="http://svgjs.dev/svgjs" width="24" height="24"><svg xmlns="http://www.w3.org/2000/svg" width="24" height="24" viewBox="0 0 24 24" fill="none" stroke="#ffffff" stroke-width="2" stroke-linecap="round" stroke-linejoin="round" class="lucide lucide-lectern"><path d="M16 12h3a2 2 0 0 0 1.902-1.38l1.056-3.333A1 1 0 0 0 21 6H3a1 1 0 0 0-.958 1.287l1.056 3.334A2 2 0 0 0 5 12h3"></path><path d="M18 6V3a1 1 0 0 0-1-1h-3"></path><rect width="8" height="12" x="8" y="10" rx="1"></rect></svg></svg></g></g><defs><clipPath id="SvgjsClipPath1482"><rect width="1000" height="1000" x="0" y="0" rx="350" ry="350"></rect></clipPath></defs></svg>